{"glyphs":{"0":{"ha":883,"x_min":0,"x_max":0,"o":"m 625 1056 b 915 739 808 1056 915 907 b 389 -14 915 338 660 -14 b 99 303 206 -14 99 135 b 625 1056 99 704 354 1056 m 625 1049 b 263 231 415 1049 263 488 b 389 -7 263 117 282 -7 b 751 811 599 -7 751 560 b 625 1049 751 925 732 1049 "},"1":{"ha":638,"x_min":0,"x_max":0,"o":"m 99 8 l 331 1033 l 169 1033 l 169 1042 l 499 1042 l 264 8 l 415 8 l 415 0 l -56 0 l -56 8 "},"2":{"ha":794,"x_min":0,"x_max":0,"o":"m 139 747 b 239 822 149 785 182 822 b 335 732 289 822 335 786 b 232 628 335 668 286 628 b 128 735 178 628 128 665 b 488 1056 128 897 286 1056 b 776 836 650 1056 776 981 b 468 485 776 686 561 554 l 51 158 l 635 158 l 657 263 l 665 263 l 608 0 l -57 0 l -32 110 l 356 408 b 604 808 490 511 604 675 b 432 1032 604 947 551 1032 b 139 747 283 1032 143 888 "},"3":{"ha":754,"x_min":0,"x_max":0,"o":"m 7 201 b 104 307 7 267 47 307 b 193 215 154 307 193 271 b 100 125 193 163 149 125 b 21 176 57 125 29 151 b 282 -1 28 83 125 -1 b 525 333 447 -1 525 185 b 311 561 525 444 490 561 l 311 569 b 597 871 532 569 597 764 b 456 1040 597 982 560 1040 b 219 888 347 1040 240 971 b 296 926 228 903 257 926 b 386 836 346 926 386 890 b 293 744 386 775 336 744 b 200 844 243 744 200 782 b 493 1054 200 950 324 1054 b 768 857 631 1054 768 1013 b 389 565 768 722 654 588 b 696 319 621 550 696 460 b 299 -14 696 131 500 -14 b 7 201 99 -14 7 99 "},"4":{"ha":863,"x_min":0,"x_max":0,"o":"m 733 0 l 332 0 l 332 8 l 451 8 l 514 294 l 53 294 l 699 1042 l 849 1042 l 683 303 l 838 303 l 838 294 l 681 294 l 617 8 l 733 8 m 517 303 l 667 993 l 71 303 "},"5":{"ha":729,"x_min":0,"x_max":0,"o":"m 685 386 b 256 -14 685 167 465 -14 b 0 188 103 -14 0 82 b 93 288 0 250 43 288 b 186 196 136 288 186 257 b 93 106 186 139 142 106 b 14 154 50 106 21 131 b 242 -4 28 71 118 -4 b 508 400 421 -4 508 242 b 367 632 508 525 468 632 b 115 515 263 632 164 586 l 103 515 l 285 1042 l 781 1042 l 797 1118 l 806 1118 l 756 883 l 239 883 l 115 528 b 393 644 168 600 274 644 b 685 386 567 644 685 567 "},"6":{"ha":806,"x_min":0,"x_max":0,"o":"m 778 417 b 350 -14 778 197 565 -14 b 69 306 190 -14 69 83 b 813 1056 69 613 403 1056 l 813 1049 b 240 324 500 1049 263 636 b 542 682 271 483 363 682 b 778 417 660 682 778 611 m 606 442 b 507 657 606 572 579 657 b 238 229 332 657 244 383 l 238 211 b 356 -6 238 94 271 -6 b 606 442 496 -6 606 275 "},"7":{"ha":729,"x_min":0,"x_max":0,"o":"m 203 103 b 479 543 203 215 365 393 b 731 876 549 635 646 767 l 190 876 l 167 772 l 158 772 l 217 1042 l 868 1042 b 500 554 868 1042 631 729 b 315 258 404 426 315 321 b 414 94 315 190 414 192 b 303 -14 414 35 372 -14 b 203 103 247 -14 203 26 "},"8":{"ha":797,"x_min":0,"x_max":0,"o":"m 42 208 b 382 532 42 368 154 521 b 167 729 247 550 167 631 b 526 1056 167 896 322 1056 b 797 826 703 1056 797 938 b 474 531 797 668 653 546 b 722 319 636 517 722 443 b 354 -14 722 153 600 -14 b 42 208 150 -14 42 69 m 336 714 b 436 535 336 629 354 535 b 628 847 551 535 628 699 b 526 1047 628 929 611 1047 b 336 714 417 1047 336 863 m 208 200 b 346 -6 208 88 250 -6 b 553 328 475 -6 553 179 b 415 526 553 440 511 526 b 208 200 286 526 208 349 "},"9":{"ha":806,"x_min":0,"x_max":0,"o":"m 736 736 b -7 -14 736 429 403 -14 l -7 -7 b 565 718 306 -7 543 406 b 264 360 535 558 443 360 b 28 625 146 360 28 431 b 456 1056 28 844 240 1056 b 736 736 615 1056 736 958 m 200 600 b 299 385 200 469 226 385 b 568 813 474 385 561 658 l 568 831 b 450 1047 568 947 535 1047 b 200 600 310 1047 200 767 "}," ":{"ha":347,"x_min":0,"x_max":0,"o":""},"!":{"ha":476,"x_min":0,"x_max":0,"o":"m 489 949 b 261 317 467 796 318 528 l 253 317 b 289 899 294 525 289 724 b 400 1053 289 985 326 1053 b 489 949 457 1053 497 1008 m 101 85 b 200 183 101 140 144 183 b 299 85 256 183 299 140 b 200 -14 299 29 256 -14 b 101 85 144 -14 101 29 "},"'":{"ha":308,"x_min":0,"x_max":0,"o":"m 367 943 b 219 658 340 839 261 797 l 211 658 b 194 933 246 786 210 829 b 193 960 193 943 193 951 b 288 1056 193 1019 236 1056 b 371 974 336 1056 371 1019 b 367 943 371 964 369 953 "},"\"":{"ha":574,"x_min":0,"x_max":0,"o":"m 632 943 b 485 658 606 839 526 797 l 476 658 b 460 933 511 786 475 829 b 458 960 458 943 458 951 b 553 1056 458 1019 501 1056 b 636 974 601 1056 636 1019 b 632 943 636 964 635 953 m 367 943 b 219 658 340 839 261 797 l 211 658 b 194 933 246 786 210 829 b 193 960 193 943 193 951 b 288 1056 193 1019 236 1056 b 371 974 336 1056 371 1019 b 367 943 371 964 369 953 "},"#":{"ha":875,"x_min":0,"x_max":0,"o":"m 322 351 l 406 711 l 161 711 l 161 719 l 407 719 l 483 1049 l 492 1049 l 415 719 l 686 719 l 761 1047 l 769 1049 l 693 719 l 911 719 l 911 711 l 692 711 l 608 351 l 842 351 l 842 343 l 607 343 l 526 -7 l 518 -8 l 599 343 l 329 343 l 249 -7 l 240 -7 l 321 343 l 92 343 l 92 351 m 601 351 l 683 711 l 414 711 l 331 351 "},"$":{"ha":796,"x_min":0,"x_max":0,"o":"m 514 1153 l 492 1054 b 521 1056 501 1056 511 1056 b 601 1046 549 1056 575 1053 l 626 1153 l 636 1153 l 611 1043 b 810 839 722 1014 810 931 b 704 721 810 775 771 721 b 607 819 657 721 607 754 b 710 917 607 881 660 917 b 793 861 754 917 785 886 b 608 1033 785 938 708 1008 l 515 632 b 743 311 628 574 743 501 b 365 -21 743 103 556 -21 l 344 -111 l 335 -111 l 356 -21 b 247 -6 317 -21 281 -15 l 222 -111 l 213 -111 l 238 -3 b 42 211 118 36 42 128 b 147 332 42 278 81 332 b 244 233 194 332 244 297 b 142 133 244 169 194 133 b 56 189 94 133 64 165 b 239 6 68 113 138 39 l 347 474 b 169 740 254 521 169 585 b 481 1053 169 907 324 1035 l 504 1153 m 532 1043 b 488 1040 517 1043 501 1042 l 407 692 b 507 636 438 672 472 654 l 600 1036 b 532 1043 578 1040 556 1043 m 306 857 b 399 697 306 781 344 733 l 478 1039 b 306 857 365 1021 306 944 m 249 3 b 357 -12 282 -7 319 -12 l 457 421 b 357 469 425 438 390 453 l 249 3 m 596 221 b 467 417 596 326 539 376 l 367 -12 b 596 221 510 -8 596 104 "},"%":{"ha":1389,"x_min":0,"x_max":0,"o":"m 382 444 b 160 653 247 444 160 510 b 507 1056 160 879 317 1056 b 729 847 642 1056 729 990 b 382 444 729 621 572 444 m 510 1047 b 318 603 415 1047 318 772 b 379 453 318 519 338 453 b 569 899 474 453 569 729 b 510 1047 569 982 551 1047 m 1243 1042 l 279 0 l 268 0 l 1232 1042 m 1014 -14 b 792 194 879 -14 792 51 b 1139 597 792 421 949 597 b 1361 389 1274 597 1361 532 b 1014 -14 1361 163 1204 -14 m 1142 589 b 950 144 1047 589 950 314 b 1011 -6 950 61 969 -6 b 1201 425 1106 -6 1201 256 b 1142 589 1201 508 1183 589 "},"&":{"ha":1124,"x_min":0,"x_max":0,"o":"m 1018 97 b 808 -14 992 36 924 -14 b 649 46 742 -14 690 3 b 351 -14 556 8 456 -14 b 28 219 156 -14 28 65 b 404 554 28 410 219 476 l 361 653 b 322 810 335 711 322 761 b 651 1056 322 949 463 1056 b 896 894 772 1056 896 1008 b 565 624 896 744 733 692 l 778 132 b 782 121 779 128 781 125 b 1090 501 958 228 1088 386 l 1092 524 b 986 438 1082 475 1039 438 b 892 531 925 438 892 488 b 992 624 892 581 935 624 b 1101 508 1061 624 1101 569 b 785 114 1101 392 974 226 b 881 11 806 63 831 11 b 1011 100 936 11 986 47 l 1018 97 m 563 631 b 738 900 663 690 738 769 b 644 1049 738 958 710 1049 b 496 861 540 1049 496 949 b 553 653 496 813 513 747 m 406 4 b 642 51 485 4 565 22 b 588 135 622 72 604 100 l 407 547 b 208 217 296 481 208 385 b 406 4 208 136 267 4 "},"(":{"ha":508,"x_min":0,"x_max":0,"o":"m 383 -236 b 115 257 226 -167 115 17 b 676 1111 115 664 408 1000 l 682 1104 b 267 182 468 982 267 513 b 386 -229 267 -40 300 -143 "},")":{"ha":508,"x_min":0,"x_max":0,"o":"m 213 1111 b 481 618 369 1042 481 858 b -81 -236 481 211 188 -125 l -86 -229 b 329 693 128 -107 329 363 b 210 1104 329 915 296 1018 "},"*":{"ha":882,"x_min":0,"x_max":0,"o":"m 389 426 b 519 694 418 531 500 572 b 285 485 393 619 367 550 b 138 492 233 447 168 439 b 208 628 108 542 144 606 b 517 703 306 664 388 631 b 267 764 389 774 363 724 b 210 901 207 790 182 851 b 364 922 240 956 310 958 b 522 708 447 857 399 779 b 492 982 547 861 492 879 b 589 1100 492 1050 532 1100 b 661 979 643 1100 679 1053 b 531 711 633 875 550 833 b 765 921 656 785 683 856 b 913 914 817 958 882 967 b 842 778 942 864 906 800 b 535 701 744 743 663 772 b 783 642 661 631 688 682 b 840 504 843 615 868 554 b 688 486 810 451 739 451 b 528 696 606 550 650 622 b 558 424 503 544 558 526 b 461 306 558 356 518 306 b 389 426 407 306 368 353 "},"+":{"ha":736,"x_min":0,"x_max":0,"o":"m 408 435 l 129 435 l 129 443 l 410 443 l 475 722 l 483 722 l 418 443 l 699 443 l 699 435 l 417 435 l 351 153 l 343 153 "},",":{"ha":332,"x_min":0,"x_max":0,"o":"m 22 82 b 132 183 22 136 71 183 b 242 58 194 183 242 143 b -50 -217 242 -86 92 -217 l -50 -208 b 231 68 76 -208 236 -87 b 124 -14 224 24 183 -14 b 22 82 56 -14 22 32 "},"-":{"ha":500,"x_min":0,"x_max":0,"o":"m 449 386 l 449 378 l 115 378 l 115 386 "},".":{"ha":311,"x_min":0,"x_max":0,"o":"m 22 86 b 122 186 22 142 67 186 b 222 86 178 186 222 142 b 122 -14 222 31 178 -14 b 22 86 67 -14 22 31 "},"/":{"ha":722,"x_min":0,"x_max":0,"o":"m 861 1083 l -32 -208 l -42 -208 l 851 1083 "},":":{"ha":308,"x_min":0,"x_max":0,"o":"m 150 669 b 250 769 150 725 194 769 b 350 669 306 769 350 725 b 250 569 350 614 306 569 b 150 669 194 569 150 614 m 14 86 b 114 186 14 142 58 186 b 214 86 169 186 214 142 b 114 -14 214 31 169 -14 b 14 86 58 -14 14 31 "},";":{"ha":340,"x_min":0,"x_max":0,"o":"m 158 669 b 258 769 158 725 203 769 b 358 669 314 769 358 725 b 258 569 358 614 314 569 b 158 669 203 569 158 614 m 22 82 b 132 183 22 136 71 183 b 242 58 194 183 242 143 b -50 -217 242 -86 92 -217 l -50 -208 b 231 68 76 -208 236 -87 b 124 -14 224 24 183 -14 b 22 82 56 -14 22 32 "},"<":{"ha":778,"x_min":0,"x_max":0,"o":"m 153 543 l 819 833 l 819 825 l 160 538 l 694 251 l 694 243 l 153 533 "},"=":{"ha":778,"x_min":0,"x_max":0,"o":"m 801 713 l 801 704 l 190 704 l 190 713 m 756 504 l 756 496 l 144 496 l 144 504 "},">":{"ha":778,"x_min":0,"x_max":0,"o":"m 764 533 l 97 243 l 97 251 l 757 539 l 222 825 l 222 833 l 764 543 "},"?":{"ha":783,"x_min":0,"x_max":0,"o":"m 368 310 l 360 310 l 397 485 b 675 858 560 528 675 693 b 536 1046 675 956 649 1046 b 246 844 374 1046 256 933 b 324 894 254 868 283 894 b 414 807 369 894 414 861 b 321 715 414 746 364 715 b 231 815 268 715 231 753 b 550 1056 231 929 367 1056 b 846 822 704 1056 846 989 b 404 479 846 621 619 490 m 229 86 b 329 186 229 142 274 186 b 429 86 385 186 429 142 b 329 -14 429 31 385 -14 b 229 86 274 -14 229 31 "},"@":{"ha":1403,"x_min":0,"x_max":0,"o":"m 838 489 b 836 446 838 475 838 460 l 900 722 l 1058 722 l 958 289 b 996 113 951 261 897 113 b 1318 557 1181 113 1318 332 b 811 1089 1318 807 1158 1089 b 85 293 411 1089 85 724 b 582 -289 85 -137 333 -289 b 1083 -83 808 -289 965 -219 l 1090 -89 b 582 -297 974 -225 808 -297 b 76 293 328 -297 76 -143 b 813 1097 76 728 406 1097 b 1326 557 1164 1097 1326 811 b 951 94 1326 332 1197 94 b 797 281 817 94 783 196 b 581 97 753 172 675 97 b 372 319 468 97 372 175 b 696 735 372 528 529 735 b 838 489 814 735 838 603 m 831 481 b 728 707 831 539 825 707 b 546 315 636 707 546 488 b 626 126 546 222 567 126 b 817 361 706 126 785 231 l 818 369 b 831 481 826 406 831 443 "}}}
